HIERARCHY
ROOT Hips
{
  OFFSET -102.467 93.6631 130.069
  CHANNELS 6 Xposition Yposition Zposition Zrotation Xrotation Yrotation
  JOINT LeftUpLeg
  {
    OFFSET 8.64259 1.95398 -2.38835
    CHANNELS 3 Zrotation Xrotation Yrotation
    JOINT LeftLeg
    {
      OFFSET 43.7702 0 0
      CHANNELS 3 Zrotation Xrotation Yrotation
      JOINT LeftFoot
      {
        OFFSET 40.6238 0 0
        CHANNELS 3 Zrotation Xrotation Yrotation
        JOINT LeftToeBase
        {
          OFFSET 12.7242 0 0
          CHANNELS 3 Zrotation Xrotation Yrotation
          End Site
          {
            OFFSET 0 0 0
          }
        }
      }
    }
  }
  JOINT RightUpLeg
  {
    OFFSET -8.2249 1.95398 -2.59336
    CHANNELS 3 Zrotation Xrotation Yrotation
    JOINT RightLeg
    {
      OFFSET 43.5653 0 0
      CHANNELS 3 Zrotation Xrotation Yrotation
      JOINT RightFoot
      {
        OFFSET 40.6238 0 0
        CHANNELS 3 Zrotation Xrotation Yrotation
        JOINT RightToeBase
        {
          OFFSET 12.7242 0 0
          CHANNELS 3 Zrotation Xrotation Yrotation
          End Site
          {
            OFFSET 0 0 0
          }
        }
      }
    }
  }
  JOINT Spine
  {
    OFFSET 0.165834 0.87714 6.61349
    CHANNELS 3 Zrotation Xrotation Yrotation
    JOINT Spine1
    {
      OFFSET 7.38963 1.71661e-005 0
      CHANNELS 3 Zrotation Xrotation Yrotation
      JOINT Spine2
      {
        OFFSET 11.9445 1.14441e-005 0
        CHANNELS 3 Zrotation Xrotation Yrotation
        JOINT Spine3
        {
          OFFSET 14.7254 4.19617e-005 0
          CHANNELS 3 Zrotation Xrotation Yrotation
          JOINT Spine4
          {
            OFFSET 10.9679 0 0
            CHANNELS 3 Zrotation Xrotation Yrotation
            JOINT RightShoulder
            {
              OFFSET 2.46616 -1.6653 3.69651
              CHANNELS 3 Zrotation Xrotation Yrotation
              JOINT RightArm
              {
                OFFSET 13.0012 0 0
                CHANNELS 3 Zrotation Xrotation Yrotation
                JOINT RightForeArm
                {
                  OFFSET 28.7848 1.52588e-005 0
                  CHANNELS 3 Zrotation Xrotation Yrotation
                  JOINT RightHand
                  {
                    OFFSET 26.5688 1.52588e-005 0
                    CHANNELS 3 Zrotation Xrotation Yrotation
                    End Site
                    {
                      OFFSET 0 0 0
                    }
                  }
                }
              }
            }
            JOINT LeftShoulder
            {
              OFFSET 2.38034 -1.29275 -3.7523
              CHANNELS 3 Zrotation Xrotation Yrotation
              JOINT LeftArm
              {
                OFFSET 16.3182 6.10351e-005 0
                CHANNELS 3 Zrotation Xrotation Yrotation
                JOINT LeftForeArm
                {
                  OFFSET 27.0901 0 0
                  CHANNELS 3 Zrotation Xrotation Yrotation
                  JOINT LeftHand
                  {
                    OFFSET 24.5451 1.52588e-005 0
                    CHANNELS 3 Zrotation Xrotation Yrotation
                    End Site
                    {
                      OFFSET 0 0 0
                    }
                  }
                }
              }
            }
            JOINT Neck
            {
              OFFSET 5.0226 -0.0266342 0
              CHANNELS 3 Zrotation Xrotation Yrotation
              JOINT Head
              {
                OFFSET 6.69363 2.86102e-005 0
                CHANNELS 3 Zrotation Xrotation Yrotation
                End Site
                {
                  OFFSET 0 0 0
                }
              }
            }
          }
        }
      }
    }
  }
}
MOTION
Frames:	6
Frame Time:	0.0416667
197.057 97.6791 -202.125 108.25 53.2008 75.6558 -175.692 8.81624 86.9262 -30.0431 18.2255 0.875107 64.8512 4.4452 10.8428 30.7171 -0.478433 -3.0654 168.974 8.10767 81.552 -59.6298 -11.0135 -0.677068 52.6794 10.893 24.587 46.0215 -1.99939 6.77461 0.137431 8.13563 -90.1228 10.6028 0.217334 -0.263646 -1.06816 0.205524 -0.272969 -23.6033 0.286515 -0.186145 -3.59068 0.286523 -0.186147 101.713 -50.1255 -82.8726 30.3097 -13.1912 -3.64345 -7.61433 -16.1361 -22.7737 -9.757 -0.497904 0.791414 -83.2509 -52.8208 88.9211 -22.5988 2.12139 -3.80151 4.64394 36.8384 -7.90079 -3.75759 -0.134397 -0.7402 2.00491 -6.54965 -23.5404 -18.9588 -7.50753 35.1022 
193.485 97.5712 -197.351 104.464 49.6734 78.1418 -175.926 12.2569 86.3349 -25.5176 17.7587 0.0142185 59.0205 0.633573 12.249 30.893 -0.563243 -3.6849 170.016 -1.81988 80.8742 -48.2375 -9.53038 -1.62917 52.8246 10.8631 25.3579 45.7542 -2.12567 6.0766 0.80216 7.81964 -90.0308 11.2378 1.58211 -0.218649 -0.432215 1.57094 -0.288095 -22.9751 1.57465 0.267064 -2.96247 1.57466 0.267061 100.876 -50.0679 -84.1778 29.9635 -14.3511 -4.28239 -7.34712 -15.874 -22.6801 -8.87214 -0.458114 0.861663 -81.7698 -53.4933 91.1415 -21.2878 0.959392 3.89668 5.21173 37.3279 -9.00347 -7.85066 -0.241986 -1.16974 -1.2543 -5.14999 -20.1297 -17.6967 -6.40058 31.5144 
189.112 97.5651 -191.046 100.03 48.0658 81.3378 -177.307 14.645 86.7231 -14.7422 15.0353 0.339919 51.3936 -4.17533 8.45113 34.054 -0.669034 -0.998623 171.23 -6.60067 82.1986 -33.7915 -6.49444 -1.66447 59.439 9.25153 24.5423 45.368 -0.0699812 13.0625 1.07234 7.68188 -89.9723 11.5121 2.14642 -0.162086 -0.157114 2.13721 -0.256449 -22.706 2.09587 0.490792 -2.69338 2.09584 0.490785 100.95 -49.1648 -84.0821 30.5875 -15.3348 -6.84009 -9.51745 -16.4822 -25.9921 -7.03004 -0.328779 0.272439 -80.9616 -55.65 92.4365 -19.7058 -1.04317 6.09693 5.58122 33.0884 -9.03524 -12.1254 -0.328552 -1.58917 1.54497 -3.07169 -14.6392 -21.4137 -4.66545 24.8286 
183.83 98.1619 -183.607 99.6065 50.5658 84.2838 -178.079 16.3838 88.9754 -7.69079 12.1096 1.60189 54.1228 -2.08398 4.12243 40.433 -0.724976 3.76258 172.907 -5.6238 87.9456 -28.7146 -2.09207 0.142728 66.7658 6.29209 18.3658 43.7881 -0.0836518 11.9905 1.05479 8.03878 -90.4315 10.8087 1.90107 -1.03942 -0.861255 1.85349 -1.12211 -23.4071 2.12554 -0.419814 -3.39448 2.12556 -0.419813 100.573 -48.3975 -84.7033 28.8539 -16.2353 -8.16346 -10.8539 -13.1275 -31.6393 -7.8499 -0.275728 -1.12802 -81.5998 -56.8387 91.5977 -21.8275 -0.660926 -0.501335 6.02827 35.434 -8.80502 -14.5325 -0.440197 -1.09106 6.72866 -1.55085 -7.05088 -25.9402 -2.89319 14.178 
178.956 98.8898 -177.323 99.8809 52.8506 83.9924 -178.011 16.7926 88.7036 -8.58012 9.19505 1.05266 51.2135 -1.60401 6.43323 41.5212 -0.395286 6.11726 174.101 -1.63665 90.187 -27.8631 -1.70136 0.649238 70.5929 2.84907 11.2752 36.0721 -0.492757 5.44494 0.746504 8.2841 -90.5328 10.3112 1.24351 -1.16584 -1.3597 1.19102 -1.21945 -23.8976 1.5364 -0.738188 -3.88498 1.53641 -0.738192 100.448 -48.797 -84.8883 26.4211 -17.3014 -8.7739 -11.8393 -13.8236 -33.0535 -8.33407 -0.323647 -0.700054 -82.388 -56.4043 90.4585 -23.4129 3.79189 -5.18704 8.90453 33.5255 -16.7167 -13.1622 -0.175815 -3.46673 7.93919 -0.924426 -4.30161 -27.2928 -1.8431 8.88044 
174.554 99.3045 -172.884 101.399 54.8739 81.377 -178.688 17.5105 87.0177 -28.6724 5.79226 1.24889 52.9564 1.41976 6.58119 45.9798 -0.117073 8.70374 174.003 2.38881 88.5232 -29.357 -0.663722 0.625314 69.6147 4.87164 11.2352 31.8531 0.346103 5.6725 0.444547 8.36737 -90.4503 10.1412 0.680543 -0.95142 -1.52991 0.638018 -0.980463 -24.0648 0.935028 -0.702914 -4.05217 0.935023 -0.702917 101.054 -49.1174 -83.9218 26.9532 -15.6918 -6.41832 -8.63417 -12.2972 -28.4247 -8.37293 -0.346442 -0.405263 -83.9751 -54.5372 88.0345 -24.5353 8.00446 -11.7917 9.62334 32.6948 -19.8556 -7.95588 -0.139203 -3.29157 5.03692 -1.73205 -3.68983 -24.2126 -2.40518 7.69292 
